<?xml version="1.0" encoding="UTF-8"?>
<svg xmlns="http://www.w3.org/2000/svg" viewBox="0 0 128 128"><rect width="128" height="128" rx="14" fill="#65d3e7"/><g transform="rotate(2 64 70)"><path d="M38 123c4-20 16-31 31-31s27 11 31 31z" fill="#ffe47a" stroke="#191919" stroke-width="1.6"/><path d="M57 91h23v20c0 6-23 6-23 0z" fill="#d8986d" stroke="#191919" stroke-width="1.5"/><circle cx="39" cy="69" r="7" fill="#d8986d" stroke="#191919" stroke-width="1.5"/><circle cx="98" cy="69" r="7" fill="#d8986d" stroke="#191919" stroke-width="1.5"/><path d="M37 60c0-23 13-38 32-38s33 15 33 38v18c0 19-14 30-33 30S37 97 37 78z" fill="#d8986d" stroke="#191919" stroke-width="1.8"/><path d="M36 50c7-20 22-29 42-27 17 2 25 10 27 23-16-9-32-8-48-3-8 2-15 5-21 7z" fill="#6b3c23"/><path d="M32 55c7-7 15-11 25-13-8 8-15 15-22 25z" fill="#6b3c23"/><path d="M46 62l13-3M78 59l13 3" stroke="#2b211d" stroke-width="4" stroke-linecap="round"/><circle cx="54" cy="69" r="3" fill="#171717"/><circle cx="84" cy="69" r="3" fill="#171717"/><path d="M68 71c-1 5-3 9-5 12 3 2 7 2 10 0" fill="none" stroke="#9a5b42" stroke-width="2" stroke-linecap="round"/><circle cx="69" cy="84" r="5" fill="#3b1f1f"/><circle cx="100" cy="78" r="3" fill="#ffe36d" stroke="#191919" stroke-width="1"/></g></svg>