<?xml version="1.0" encoding="UTF-8"?>
<svg xmlns="http://www.w3.org/2000/svg" viewBox="0 0 128 128"><rect width="128" height="128" rx="14" fill="#8ed9ff"/><g transform="rotate(-3 64 70)"><path d="M38 123c4-20 16-31 31-31s27 11 31 31z" fill="#f5d7e9" stroke="#191919" stroke-width="1.6"/><path d="M57 91h23v20c0 6-23 6-23 0z" fill="#ffe0c9" stroke="#191919" stroke-width="1.5"/><circle cx="39" cy="69" r="7" fill="#ffe0c9" stroke="#191919" stroke-width="1.5"/><circle cx="98" cy="69" r="7" fill="#ffe0c9" stroke="#191919" stroke-width="1.5"/><path d="M37 60c0-23 13-38 32-38s33 15 33 38v18c0 19-14 30-33 30S37 97 37 78z" fill="#ffe0c9" stroke="#191919" stroke-width="1.8"/><path d="M36 50c7-20 22-29 42-27 17 2 25 10 27 23-16-9-32-8-48-3-8 2-15 5-21 7z" fill="#1f2430"/><path d="M32 55c7-7 15-11 25-13-8 8-15 15-22 25z" fill="#1f2430"/><path d="M46 58l13 3M78 62l13-3" stroke="#2b211d" stroke-width="4" stroke-linecap="round"/><circle cx="54" cy="69" r="9" fill="none" stroke="#171717" stroke-width="2.2"/><circle cx="84" cy="69" r="9" fill="none" stroke="#171717" stroke-width="2.2"/><path d="M63 69h12" stroke="#171717" stroke-width="2.2" stroke-linecap="round"/><path d="M68 71c-1 5-3 9-5 12 3 2 7 2 10 0" fill="none" stroke="#9a5b42" stroke-width="2" stroke-linecap="round"/><path d="M60 85c6-4 13-4 19 0" fill="none" stroke="#3b1f1f" stroke-width="4" stroke-linecap="round"/><circle cx="100" cy="78" r="3" fill="#ffe36d" stroke="#191919" stroke-width="1"/></g></svg>