<?xml version="1.0" encoding="UTF-8"?>
<svg xmlns="http://www.w3.org/2000/svg" viewBox="0 0 128 128"><rect width="128" height="128" rx="14" fill="#5668f5"/><g transform="rotate(3 64 70)"><path d="M38 123c4-20 16-31 31-31s27 11 31 31z" fill="#f5d7e9" stroke="#191919" stroke-width="1.6"/><path d="M57 91h23v20c0 6-23 6-23 0z" fill="#e9a978" stroke="#191919" stroke-width="1.5"/><circle cx="39" cy="69" r="7" fill="#e9a978" stroke="#191919" stroke-width="1.5"/><circle cx="98" cy="69" r="7" fill="#e9a978" stroke="#191919" stroke-width="1.5"/><path d="M37 60c0-23 13-38 32-38s33 15 33 38v18c0 19-14 30-33 30S37 97 37 78z" fill="#e9a978" stroke="#191919" stroke-width="1.8"/><path d="M34 54c2-23 18-36 39-34 19 2 30 16 31 35-17-12-42-12-70-1z" fill="#6b3c23"/><path d="M46 62l13-3M78 59l13 3" stroke="#2b211d" stroke-width="4" stroke-linecap="round"/><circle cx="54" cy="69" r="9" fill="none" stroke="#171717" stroke-width="2.2"/><circle cx="84" cy="69" r="9" fill="none" stroke="#171717" stroke-width="2.2"/><path d="M63 69h12" stroke="#171717" stroke-width="2.2" stroke-linecap="round"/><path d="M68 71c-1 5-3 9-5 12 3 2 7 2 10 0" fill="none" stroke="#9a5b42" stroke-width="2" stroke-linecap="round"/><path d="M58 82c7 8 17 8 23 0" fill="#fff" stroke="#3b1f1f" stroke-width="3" stroke-linejoin="round"/></g></svg>