<?xml version="1.0" encoding="UTF-8"?>
<svg xmlns="http://www.w3.org/2000/svg" viewBox="0 0 128 128"><rect width="128" height="128" rx="14" fill="#ff4f9a"/><g transform="rotate(-1 64 70)"><path d="M38 123c4-20 16-31 31-31s27 11 31 31z" fill="#e9ddff" stroke="#191919" stroke-width="1.6"/><path d="M57 91h23v20c0 6-23 6-23 0z" fill="#e9a978" stroke="#191919" stroke-width="1.5"/><circle cx="39" cy="69" r="7" fill="#e9a978" stroke="#191919" stroke-width="1.5"/><circle cx="98" cy="69" r="7" fill="#e9a978" stroke="#191919" stroke-width="1.5"/><path d="M37 60c0-23 13-38 32-38s33 15 33 38v18c0 19-14 30-33 30S37 97 37 78z" fill="#e9a978" stroke="#191919" stroke-width="1.8"/><path d="M35 52c4-22 20-34 41-30 15 3 24 15 27 30-22-13-43-14-68 0z" fill="#4159f2"/><path d="M48 24c9-10 24-10 34 0-12-2-22-1-34 0z" fill="#4159f2"/><path d="M46 58l13 3M78 62l13-3" stroke="#2b211d" stroke-width="4" stroke-linecap="round"/><circle cx="54" cy="69" r="3" fill="#171717"/><circle cx="84" cy="69" r="3" fill="#171717"/><path d="M68 71c-1 5-3 9-5 12 3 2 7 2 10 0" fill="none" stroke="#9a5b42" stroke-width="2" stroke-linecap="round"/><circle cx="69" cy="84" r="5" fill="#3b1f1f"/></g></svg>